<svg xmlns="http://www.w3.org/2000/svg" viewBox="0 0 1043.708 534.868">
  <defs>
    <style>
      .cls-1 {
        opacity: 0.399;
      }

      .cls-2 {
        fill: #333;
      }
    </style>
  </defs>
  <g id="Group_49" data-name="Group 49" class="cls-1" transform="translate(-0.1 0.027)">
    <path id="Path_50" data-name="Path 50" class="cls-2" d="M852.4,197.705c-7.792-.344-16.043.573-23.377-1.375a221.233,221.233,0,0,0-49.619-6.876c-4.584-.229-9.167-.229-13.751-.229a47.913,47.913,0,0,0-6.646,1.031c3.667,2.521,5.615,3.9,7.678,5.157l-.344,1.375c-5.042-.458-9.97-.8-15.012-1.261-20.627-1.834-18.793-2.865-23.492,13.98-1.26,4.355-3.094,8.595-4.7,12.835,9.053,2.75,10.084,5.615,7.449,15.012-2.979,10.428-4.24,21.429-8.48,31.284-4.928,11.345-6.646,23.263-9.741,34.951-2.636,10.084-3.9,20.4-5.844,30.6,7.1,15.241-2.865,31.284,2.292,46.64a44.779,44.779,0,0,0,3.782,9.4c4.011,6.646,8.365,13.064,12.72,19.481a122.668,122.668,0,0,0,11.116,14.324c4.125,4.355,9.855,4.469,14.324.458,5.271-4.7,10.657-9.4,15.012-14.783,6.876-8.709,9.053-18.45,8.022-30.024-.8-9.168,1.833-18.793,3.9-27.961a144.081,144.081,0,0,1,7.563-23.836,51.6,51.6,0,0,1,8.938-13.751c6.761-8.022,13.408-16.043,21.2-23.033,6.3-5.615,13.866-10.084,21.314-14.21,13.178-7.334,25.1-1.834,30.253,12.262,6.073,16.5,2.292,30.94-8.251,43.775-7.449,9.053-16.387,16.845-24.752,25.325-1.031,1.031-2.406,2.177-2.865,3.438-7.219,21.658-8.022,43.087,4.7,63.141a194.473,194.473,0,0,0,17.3,22.69c4.928,5.73,11.574,7.334,18.793,4.584,11.116-4.354,20.856-10.428,26.242-21.658,1.948-4.011,4.813-6.188,10.2-5.157-1.146,11.345-5.615,20.627-12.949,29.107-12.147,14.1-28.763,20.054-45.723,24.294-13.981,3.552-27.044-1.948-38.618-10.428-13.866-10.2-21.887-24.638-27.961-40.222a21.245,21.245,0,0,0-1.375-3.782,42.78,42.78,0,0,0-3.209-4.355c-1.375,1.146-3.094,2.063-4.125,3.438A89.213,89.213,0,0,1,735.4,455.2c-27.273,11.345-50.88,5.042-67.5-19.71-4.928-7.334-6.99-7.449-11.345.458-5.844,10.657-11.345,21.658-17.189,32.315-19.366,35.066-59.7,22.919-72.194-.115-1.834-3.323-3.667-3.552-6.876-2.406-9.855,3.438-19.825,6.99-29.909,9.511-18.22,4.584-42.629-3.782-49.39-22.575-1.6-4.469-4.813-5.042-8.595-2.406-8.136,5.615-17.3,8.48-27.044,10.084-16.616,2.75-30.367-3.438-42.858-13.293-5.386-4.24-10.084-9.282-15.241-13.866-4.125-3.782-6.073-3.438-8.595,1.719-1.261,2.521-2.292,5.271-3.438,7.907a166.5,166.5,0,0,1-41.368,56.38c-15.012,13.637-31.972,25.44-54.317,21.658-6.417-1.146-12.491-4.125-18.679-6.417-.917-.344-2.292-1.719-2.177-2.406,1.261-7.678-6.417-10.084-9.053-15.47-3.782-7.678-7.907-15.126-12.147-23.148-5.73,1.833-7.1-2.521-7.563-7.334-.344-4.011-.573-8.136.344-11.918,3.438-13.866,7.792-27.388,10.886-41.368,2.521-11.574,8.251-21.2,14.553-30.826,1.719-2.636,4.24-5.271,1.031-8.595a2.714,2.714,0,0,1-.229-2.063c6.188-4.813,1.375-11.345,2.406-16.96.229-1.146-1.6-3.438-2.865-4.011-4.011-1.719-8.136-3.782-12.376-4.125-3.094-.229-7.334,1.146-9.4,3.438-7.907,8.251-10.657,19.137-13.637,29.794-4.011,14.324-6.073,29.451-12.262,42.744-13.866,30.367-35.753,54.088-66.464,68.069-22.69,10.313-45.15,7.219-66.235-5.615-12.262-7.449-24.294-15.241-33.691-26.357-16.616-20.627-29.336-42.973-34.378-69.1-.344-1.948.115-4.011.229-6.073l8.022-8.022c.573,2.177,1.719,4.24,1.834,6.417,1.146,24.523,13.293,44.462,27.044,63.6,3.209,4.584,8.022,8.022,12.147,11.918.573-.573,1.261-1.031,1.833-1.6-1.146-1.719-2.177-3.552-3.438-5.157C40.5,431.591,28.357,411.537,23.43,387.816c-1.261-6.073-1.261-12.262-1.948-18.45,2.636-2.521,5.386-5.157,8.022-7.678,1.948,7.792,5.042,15.47,5.5,23.377.917,15.929,4.7,30.482,14.439,43.087q8.938,11.689,18.22,23.033c3.9,4.7,8.709,8.365,16.96,8.022-1.948-3.438-2.865-6.99-5.042-8.594-11.345-8.48-17.991-20.4-25.211-32.086C41.765,397.9,40.046,375.211,40.39,352.063a7.988,7.988,0,0,1,.688-2.177h-.115a37.463,37.463,0,0,0,1.146,5.157c.688,2.292.8,5.615,2.406,6.646,5.844,3.9,5.73,9.282,5.271,15.241-.344,4.011-.115,8.022-.573,12.032-1.031,8.48.917,15.7,6.532,22.231,3.209,3.667,5.271,8.365,8.251,12.262,6.3,8.251,12.72,16.616,19.71,24.408,2.406,2.75,6.532,4.011,9.97,5.959a17.483,17.483,0,0,0,1.261-1.833c-1.146-1.375-2.292-2.865-3.438-4.24-6.3-7.449-12.72-14.668-18.793-22.231-2.063-2.636-4.24-6.073-4.125-9.168.115-5.615,1.719-11.116-5.5-13.522-.458-.115-.8-.917-.917-1.375-1.261-5.5-2.75-11-3.667-16.616-1.719-11.23-3.323-22.575-4.469-33.92-.458-4.927.458-9.97.8-14.9C64.34,326.509,73.966,317,83.477,307.486c.917,9.282,4.813,18.908-2.636,27.5-3.094,3.552-2.521,7.334.344,10.886,1.146,1.375,2.521,3.552,2.063,5.042-3.094,12.376,1.6,23.95,4.813,35.18,6.761,23.95,18.908,44.348,42.4,56.266,11.574,5.844,22.46,6.532,33.576-.115a69.811,69.811,0,0,0,29.107-32.774c6.417-14.668,12.72-29.336,19.825-43.66,3.782-7.792,8.824-15.126,13.637-22.46,2.979-4.469,3.438-8.48.688-13.293-11-19.252-10.2-38.962-2.063-58.9,6.532-15.929,16.272-29.221,31.4-38.274,8.136-4.813,15.814-10.428,24.065-15.012,6.417-3.552,13.866-2.521,19.825.917a19.028,19.028,0,0,1,8.136,10.886c4.469,19.252.8,37.816-8.938,54.547-6.417,11-14.783,20.741-22.46,30.826-2.406,3.094-4.584,6.073-1.49,9.511,3.552,3.9,6.99,1.948,9.74-1.146a93.462,93.462,0,0,0,8.48-10.657c2.636-3.9,5.386-5.615,10.428-4.584,4.355.917,9.053.115,13.637,0,4.24-.115,8.365-.573,12.605-.229,9.626.8,12.491,3.323,14.783,12.835,2.865,11.8.917,22.117-7.907,31.628-7.219,7.678-12.147,17.418-18.22,26.242-10.657,15.356-15.47,33.347-20.4,50.88-4.24,15.012-1.031,29.794,6.3,43.546,3.438,6.3,9.855,8.022,15.929,3.782,11.8-8.251,23.95-16.158,30.826-29.794,4.813-9.511,11.689-17.877,16.616-27.273,2.177-4.011,3.782-9.97,2.406-13.98-6.3-19.252-5.844-38.5-2.865-58.1,1.834-11.689,3.094-23.492,9.282-33.92,11.574-19.825,23.95-38.5,41.6-53.974,15.126-13.293,30.253-25.44,49.275-32.43,9.053-3.323,17.762-2.865,25.784,2.063,2.292,1.375,5.042,4.7,4.928,6.876-1.261,16.845-1.031,34.149-5.73,50.078-3.782,12.949-13.178,24.408-21.085,35.868-10.084,14.439-21.314,27.846-36.212,37.816-2.292,1.49-3.782,5.386-4.24,8.251-2.865,18.22-1.375,36.1,5.5,53.4,5.271,13.064,16.731,16.845,29.221,10.313,8.251-4.354,9.282-11.23,10.543-19.252,2.865-18.564,6.761-37.014,10.2-55.578a13.2,13.2,0,0,1,1.375-3.209c.458,2.865.8,4.927,1.49,8.251,3.438-4.24,6.073-7.563,8.709-10.886,15.241-18.45,35.066-28.992,58.443-32.888a22.3,22.3,0,0,1,6.761-.115c9.511,1.49,19.366,2.063,28.534,4.928,15.47,4.928,20.4,19.481,26.242,32.659,1.948,4.355,3.9,8.595,5.73,12.949.917,2.063,2.292,4.24,2.177,6.3-.688,11.345-1.146,22.69-2.75,34.034-2.063,15.126-5.271,30.024-7.1,45.15-.344,2.979,1.948,7.907,4.584,9.282,1.948,1.146,7.792-.688,9.282-2.865,8.021-12.147,15.7-24.752,22.575-37.587,3.094-5.73,1.719-12.262-1.719-18.106a26.379,26.379,0,0,1-3.438-8.365c-.344-2.063.8-4.469,1.26-6.761h2.177c1.26,3.782,2.292,7.792,3.9,11.459.917,2.063,2.636,4.469,4.584,5.157,1.146.344,3.667-2.177,4.928-3.9,5.271-7.449,8.824-15.356,6.646-25.1-1.031-4.355-.344-9.168-.115-13.751,1.26-24.981.458-50.078,5.386-74.715.688-3.209-1.031-6.876-1.26-10.428a17.533,17.533,0,0,1,.917-6.876c2.521-6.532,5.959-12.72,8.136-19.252,2.406-7.449,3.782-15.126,5.615-22.69.917-3.782-.229-6.761-1.833-10.428-2.292-5.271-1.375-11.8-1.6-17.877-.115-1.719.687-3.323.8-5.042.573-6.417-.458-7.334-6.876-7.449a17.975,17.975,0,0,1-6.646-.917,35.02,35.02,0,0,0-21.887-1.834c-4.813,1.146-8.365,1.261-9.053-4.928-.114-.573-.917-1.146-1.948-2.406-4.125,6.532-8.938,2.979-14.324,2.177-9.97-1.6-20.169-1.49-30.138-2.292-7.792-.688-15.47-1.719-23.263-2.521-6.188-.688-12.376-2.406-17.533,3.552-1.375,1.6-5.386,1.6-7.907,1.146-9.626-1.834-18.679-3.552-28.534.573-3.552,1.49-9.167-1.375-13.522-2.979-3.667-1.375-6.646-1.261-10.657-.458-5.615,1.146-12.032-.344-17.877-1.6-7.678-1.719-9.74-1.49-14.21,5.844-3.667-2.75-7.219-5.73-11-8.136a7.363,7.363,0,0,0-5.615-.688,21.752,21.752,0,0,1-16.5-.688c-4.355-1.834-10.084-.344-15.126-.917-8.709-1.031-17.418-1.719-25.784-4.011-5.157-1.375-9.053-2.063-12.147,2.979-11-3.667-18.679-10.772-24.408-20.283a23.216,23.216,0,0,0-3.782-5.042c-10.313-9.855-1.261-24.523,10.543-26.815a8.109,8.109,0,0,1,6.417,2.406c5.615,6.417,12.949,9.282,20.971,10.772,33,6.073,65.891,12.376,98.895,18.22,16.731,2.979,33.576,5.042,50.307,7.449,15.012,2.177,30.024,4.584,45.035,6.646a27.382,27.382,0,0,0,9.168-.229c12.376-2.177,24.638-1.6,37.014.458,6.876,1.146,13.981.229,20.971.8,8.709.688,17.418,2.063,26.127,3.094,5.386.573,9.053-.917,10.657-6.761,2.063-7.563,5.042-14.783,7.449-22.231a40.438,40.438,0,0,0,.917-4.584c-1.6.229-2.636.458-3.667.573-.115-.458-.458-.917-.229-1.146,3.552-5.615,7.1-11.116,10.657-16.616.8-1.261,2.292-2.521,2.177-3.667-.8-9.511,7.907-14.324,10.886-22,.458-1.146,5.5-1.6,7.678-.688,12.835,5.959,21.429,16.387,26.586,29.336,1.146,2.75-.344,6.646-.917,9.855-1.031,5.73-2.292,11.459-3.667,17.189a33,33,0,0,1-2.979,7.907c-5.959,11.23-3.094,15.241,8.022,19.137,5.73,2.063,12.376,1.834,18.679,2.292,7.792.458,15.7-.229,23.377.8,14.324,1.834,28.534,4.469,42.744,6.99a81.9,81.9,0,0,1,9.053,2.636C845.526,190.715,848.964,194.153,852.4,197.705ZM540.248,434.456c.688,3.552,1.146,7.1,2.063,10.428,1.6,6.3,5.042,7.563,10.428,3.9a15.652,15.652,0,0,0,4.125-5.271c4.7-8.48,9.053-17.189,13.637-25.784,7.563-14.21,16.5-27.961,15.356-45.379-.344-5.5,3.667-8.365,9.282-8.824,2.865-.229,5.844-.115,8.365-1.031a5.648,5.648,0,0,0,2.979-4.469c-.573-6.99-11.574-15.47-17.991-13.408a54.377,54.377,0,0,0-16.158,7.907c-11.23,8.709-23.606,15.012-36.785,21.544-.8-2.636-1.26-4.7-2.406-8.48-8.022,13.408-16.043,25.1-22.117,37.587-5.959,12.147-2.979,25.9-3.209,38.962,0,1.834,2.063,3.782,3.209,5.615.573-.229,1.146-.344,1.719-.573.8-5.271,1.6-10.428,2.406-15.7a6.71,6.71,0,0,1,1.49-.229c3.438,6.99,2.865,16.731,12.605,19.939-.8-2.521-1.49-5.157-2.406-8.136C534.4,444.54,535.206,436.748,540.248,434.456ZM486.733,260.5c-.8-2.177-1.261-5.615-2.636-6.188-1.719-.688-4.469,1.031-6.532,2.063-16.96,9.167-24.981,26.7-37.472,40.108-.917,1.031-1.146,2.75-1.49,4.24-1.375,5.73-2.636,11.459-4.011,17.189-2.063,8.365-4.354,16.616-6.073,24.982-.458,2.177.688,5.271,2.063,7.1.573.8,4.24,0,5.959-1.146a88.741,88.741,0,0,0,11.8-8.938C471.836,318.831,485.358,292.818,486.733,260.5ZM265.108,298.089c.115,1.49-.115,3.209.458,4.584,1.031,2.75,2.406,5.386,3.667,8.022,2.636-1.26,6.073-1.948,7.678-4.011,5.959-8.022,12.147-16.158,16.616-25.1,4.813-9.511,9.97-19.6,6.761-31.055-.8-2.979-1.948-5.959-2.865-8.938-3.094,1.6-6.761,2.636-9.4,4.928C272.328,259.93,266.14,277.806,265.108,298.089Zm128.345,71.736c7.563,2.521,9.4,1.719,13.866-5.5.573-.917,1.031-2.063,1.719-2.979.688-.8,1.49-1.948,2.406-2.063,7.219-.688,7.907-6.532,8.709-11.574.458-2.979-.688-6.073-1.031-9.167a53.234,53.234,0,0,1-6.417,3.9c-1.375.688-4.125,1.6-4.469,1.146-1.031-1.375-2.063-3.782-1.49-5.042a40.66,40.66,0,0,1,5.959-9.4c3.209-3.782,3.094-5.271-1.49-6.99-3.094-1.146-6.188-2.406-9.97-3.782-3.094,7.449-11.574,12.72-8.824,22.8.229,1.031-.917,2.406-1.261,3.667-.8,2.292-1.6,4.7-2.177,6.99-1.719,6.532-3.209,13.064-4.928,19.6-.688,2.75-2.521,5.386-2.636,8.022-.115,3.094,1.261,6.188,2.063,9.168,2.636-2.406,5.5-4.7,8.022-7.334.688-.688.344-2.177.573-3.323C392.537,375.326,393,372.575,393.453,369.825Zm279.609,31.742c-3.323,7.334-8.251,14.439-3.667,22.575,7.792,13.866,18.908,24.179,34.722,28.3a11.516,11.516,0,0,0,3.438,0C696.21,435.6,684.866,418.986,673.062,401.568Zm180.714-91.331c0-2.865.458-5.844-.115-8.48-.458-2.292-1.948-5.5-3.667-5.959-1.834-.573-4.813,1.146-6.646,2.636-1.375,1.031-1.948,3.209-2.521,4.927-3.438,12.949-6.876,26.013-10.2,39.077-.344,1.49.688,3.323,1.146,5.042,1.719-.573,4.011-.573,4.927-1.719C845.3,335.447,856.642,326.28,853.777,310.236Zm-153.67,86.4c0-2.636.458-4.354-.115-5.959-1.6-4.927-3.782-9.626-5.157-14.553a40.812,40.812,0,0,1-1.719-12.835c.458-10.428,1.719-20.856,2.521-31.284a44.494,44.494,0,0,0-.458-5.5c-3.552,15.585-6.99,30.94-8.709,46.525C685.668,382.774,690.939,390.452,700.107,396.64Zm94.769-6.99-1.719-.344a37.859,37.859,0,0,0-2.521,3.438c-7.219,13.064,0,24.638,4.125,36.326.344,1.031,3.9,1.26,5.959,1.146.573,0,1.719-3.323,1.146-4.469A114.85,114.85,0,0,0,795.1,415.2C802.324,407.3,794.532,398.588,794.876,389.65Zm-690.2,47.327c.458-.458.8-1.031,1.261-1.49-3.323-3.782-6.646-7.563-10.084-11.23-6.761-7.219-13.522-14.553-20.4-21.658-.8-.8-2.521-.917-3.782-1.261,0,1.031-.458,2.292,0,2.979,5.959,8.595,11.8,17.3,18.335,25.555A18.752,18.752,0,0,0,104.677,436.977ZM422.56,393.89c.573-.229,1.146-.344,1.719-.573-.458-2.177-.344-4.813-1.6-6.532-1.375-1.833-3.9-2.865-5.959-4.24a33.469,33.469,0,0,0-2.177,5.615,15.651,15.651,0,0,0,.115,5.157c1.031,8.136,2.177,16.272,8.251,22.575,1.146,1.261,3.552,1.261,5.386,1.948,0-1.6.458-3.438,0-4.927C426.456,406.61,424.508,400.307,422.56,393.89Zm103.707-25.44c-10.2-1.833-29.336,18.335-28.19,25.44C507.016,385.868,516.642,377.159,526.268,368.45Zm289.579,17.418c-5.73,10.657-1.26,33.461,5.844,35.868C819.742,409.7,817.794,397.786,815.846,385.868Zm-23.492-36.326c-6.188,4.584-8.365,19.939-2.75,27.044C790.521,367.877,791.438,359.053,792.355,349.542ZM802.21,401.8h2.063c-1.031-8.824,3.209-17.877-.8-26.471-.917,0-1.719.115-2.636.115C801.293,384.149,801.751,392.973,802.21,401.8Zm-381.6-84.685c4.011-5.959,9.97-8.938,10.657-16.158C422.789,302.9,419.008,308.174,420.612,317.112Zm380.91,35.639c2.75-4.813,4.813-8.48,6.646-12.262.115-.229-1.948-1.6-2.979-2.406-2.292,3.438-4.584,6.876-6.646,10.428C798.2,348.969,799.689,350.344,801.522,352.751ZM697.7,149.461c-.8-.229-1.6-.573-2.406-.8-2.406,4.928-4.813,9.855-7.1,14.9-.344.688.458,1.948.8,2.979,1.261-.458,3.438-.688,3.667-1.6A152.185,152.185,0,0,0,697.7,149.461ZM418.091,300.381c-3.9,2.75-7.1,4.7-9.855,7.219-.688.573-.573,2.979,0,4.011.344.688,2.521,1.031,3.552.573C415.914,310.236,418.779,307.372,418.091,300.381ZM249.065,403.86c-5.271,3.552-6.761,9.053-3.9,14.553C250.326,414.517,251.586,410.162,249.065,403.86ZM378.442,370.4c5.73-3.209,5.615-7.907,5.386-12.605a2.749,2.749,0,0,0-1.948-2.063,3.222,3.222,0,0,0-2.521,1.719C378.9,361.8,378.671,366.158,378.442,370.4Zm436.6-12.376c.573,0,1.146-.115,1.6-.115.573-1.375,1.948-3.094,1.6-4.125-.8-2.063-2.521-3.667-3.9-5.5-.687,1.375-2.063,2.865-1.948,4.125C812.752,354.355,814.127,356.189,815.044,358.022Z" transform="translate(1.079 13.266)"/>
    <path id="Path_51" data-name="Path 51" class="cls-2" d="M30.582,372.851c-2.636,2.521-5.386,5.157-8.022,7.678a16.344,16.344,0,0,1-1.031-3.094l-2.063-44.348c-.115-3.094,0-6.3,0-9.4-.688-.115-1.375-.344-2.063-.458-.688,2.292-1.948,4.469-1.948,6.761.229,12.491.8,24.981,1.261,37.472.229,6.188.115,12.491.229,18.679l-8.022,8.022c-.688-2.063-1.834-4.011-2.063-6.073C5.6,373.31,4.569,358.412,3.423,343.63A91.457,91.457,0,0,0,2.392,334,77.5,77.5,0,0,0,.1,326.555,161.645,161.645,0,0,0,6.288,272.7c-.573-8.365.917-17.189,3.323-25.211,8.136-26.93,16.616-53.859,25.784-80.559,9.74-28.419,25.325-53.515,43.66-77.236,12.491-16.158,25.9-31.284,41.827-43.66,12.032-9.4,25.9-16.616,39.306-24.065,6.073-3.323,13.064-5.157,19.71-7.219,2.177-.688,4.928-.229,7.334.115,16.96,2.636,26.127,11.345,30.253,27.961,8.709,35.295,11.345,70.819,9.855,107.145a527.314,527.314,0,0,1-11.116,90.071,137.51,137.51,0,0,1-8.136,24.294c-6.3,14.783-19.6,20.741-33.805,24.752-15.585,4.355-30.253,2.177-43.316-8.022-1.6-1.261-2.521-3.323-3.782-5.042,1.719-1.49,3.438-2.979,5.042-4.584,11-11.116,21.887-22.117,32.774-33.232,1.49,5.615,2.865,11.23,4.469,16.845a30.573,30.573,0,0,0,2.292,5.271c3.667,6.532,8.938,6.761,12.376.115A178.365,178.365,0,0,0,194.566,235.8c4.011-12.032,7.334-24.408,10.657-36.785a75.195,75.195,0,0,0,1.948-12.376c2.636-27.388,5.386-54.776,3.552-82.164a386.039,386.039,0,0,0-6.073-45.838c-1.031-5.73-4.928-11-8.022-16.158-.688-1.146-4.584-2.063-5.5-1.261-17.991,14.668-36.67,28.534-47.9,49.734-9.97,18.564-16.616,38.389-22.117,58.672-2.406,9.053-6.3,17.762-7.792,26.815-3.667,21.544-13.407,42.171-9.74,65.089.8,4.928-2.292,10.657-3.552,15.929-.917,4.011-2.636,8.022-2.865,12.032-.573,9.855-2.177,19.252-6.99,28.075-1.146,2.177-1.031,5.042-1.719,7.563-1.146,4.469-2.521,8.938-3.9,13.522-9.511,9.511-19.137,19.023-28.648,28.534-1.146-3.323-2.177-6.761-3.9-11.918-2.406,4.584-4.355,7.334-5.5,10.428-1.833,4.927-2.979,10.2-4.469,15.241h.115c-.458-8.136-1.261-16.272-1.031-24.409.115-2.75,2.406-6.99,4.584-7.678,6.417-1.948,7.563-6.646,8.709-12.032.688-3.094,1.719-6.532-2.292-7.678-4.011-1.261-5.73,1.719-6.876,5.042a31.717,31.717,0,0,1-2.521,5.271c0-8.709,1.261-16.96,2.521-25.1.688-4.469,2.521-8.251,6.761-10.657a5.031,5.031,0,0,0,1.6-4.584c-2.636-6.073-12.376-7.1-15.585-1.49-5.271,9.282-9.97,18.793-14.553,28.419-2.063,4.355-2.75,8.824,2.292,12.032a2.7,2.7,0,0,1,1.031,2.292c-2.292,5.615.344,9.855,3.438,14.21a8.42,8.42,0,0,1,.8,6.073C28.634,351.422,27.717,362.079,30.582,372.851Z" transform="translate(0 2.104)"/>
    <path id="Path_52" data-name="Path 52" class="cls-2" d="M859.329,341.379c-2.521-9.053-4.24-17.877-2.521-27.5.916-5.5-.344-11.345-1.032-16.96-.917-7.792-2.635-15.47-3.323-23.148-.458-5.615.115-11.345.459-16.96.458-6.188,1.146-11.918-3.9-17.189-1.375-1.49-1.031-5.844,0-8.251,4.469-10.313,3.9-20.4,1.49-31.17-1.49-6.876-.344-14.324-.344-21.544,0-2.865.114-5.615,0-8.48-.115-5.157-2.292-10.543,2.406-15.126,1.031-.917.114-3.9,0-5.844-.344-4.355-1.6-8.938-1.031-13.178,1.031-6.761,3.782-13.178,5.042-19.939,1.833-9.74,3.094-19.71,4.584-29.451,2.292-13.866,4.24-27.846,7.1-41.6,2.865-13.522,6.761-26.815,10.2-40.337,1.146-4.7,3.667-5.844,8.021-3.667,1.49.8,3.667,1.719,4.928,1.146,6.532-2.865,12.949-1.031,19.481-.344a9.057,9.057,0,0,1,5.615,3.209c4.469,6.646,3.9,14.439,2.636,21.658q-6.188,37.128-13.293,74.142c-1.948,9.855-5.386,19.481-7.334,29.336-3.323,16.96-5.73,34.034-8.824,50.994-1.146,6.3-3.209,12.491-4.927,18.793a11.722,11.722,0,0,0-.8,3.323c-.115,8.938,0,17.991-.115,26.93,0,1.6-.229,4.125-1.261,4.813-6.876,4.24-3.9,10.772-4.469,16.5-.458,4.584-1.6,9.053-2.062,13.637-.229,1.719-.344,4.125.573,5.386,2.521,3.323,2.177,6.073-.229,9.282-1.031,1.375-1.261,3.552-1.6,5.386-1.49,7.678-5.386,14.553-2.75,23.377,1.375,4.7-.229,9.74,3.438,15.012,3.094,4.355,2.635,11.689,2.521,17.647-.115,5.042-1.948,10.2-2.98,15.241C869.872,351.349,864.6,346.421,859.329,341.379Z" transform="translate(123.757 0)"/>
    <path id="Path_53" data-name="Path 53" class="cls-2" d="M151.2,223.485c-10.886,11.116-21.773,22.231-32.774,33.232-1.6,1.6-3.323,3.094-5.042,4.584-2.406-1.948-5.386-3.438-7.1-5.844-11.918-16.158-14.21-34.493-11.116-53.744,3.323-20.512,12.376-38.847,24.065-55.578,7.1-10.084,17.189-18.22,26.013-27.159,1.261-1.261,3.667-2.521,5.042-2.063a150.772,150.772,0,0,1,18.45,7.334c1.375.688,2.636,3.094,2.75,4.7.344,10.428.688,20.627-6.073,30.024-4.24,5.959-6.99,13.637-8.48,20.856-2.636,12.491-6.876,25.1-4.011,38.274C153.143,219.7,151.768,221.651,151.2,223.485Z" transform="translate(13.691 17.052)"/>
    <path id="Path_54" data-name="Path 54" class="cls-2" d="M884.549,391.852c-.115,18.335-7.678,30.367-18.908,34.264-19.825,6.99-38.847-8.48-34.149-29.451,2.75-12.491,9.97-24.179,15.585-35.982.458-1.146,3.667-1.6,5.5-1.375a178.134,178.134,0,0,1,20.512,4.928c2.635.917,5.844,3.552,6.647,6.073C882.143,378.788,883.518,387.383,884.549,391.852Zm-22.117,19.137a13.316,13.316,0,0,1-.458,2.063c1.948.688,4.011,2.292,5.615,1.833,1.834-.458,3.094-2.75,4.584-4.355a7.415,7.415,0,0,1-.917-1.031C868.391,409.958,865.412,410.416,862.432,410.989Z" transform="translate(121.227 52.432)"/>
    <path id="Path_55" data-name="Path 55" class="cls-2" d="M746.128,185.443c-3.438-3.552-6.99-6.99-10.428-10.543,7.907.229,15.929.344,23.835.8,5.042.344,9.97,1.375,14.9,1.719,15.126,1.375,30.368,2.636,45.608,3.9,8.136.688,16.272,1.261,24.409,1.49,7.334.115,13.98,1.6,18.908,7.678,4.011,4.813,3.209,8.136-3.094,8.824-9.626,1.146-19.366,1.6-29.107,2.063q-13.923.516-27.846.344c-2.75,0-5.5-1.146-8.136-1.833-1.6-.344-3.323-1.146-4.927-.917-11.689,1.719-22.231-.344-31.857-7.792C754.952,188.422,750.254,187.276,746.128,185.443Zm25.211,5.73a24.784,24.784,0,0,1-.458,2.865c5.157.688,10.428,1.375,15.585,2.063.115-.8.229-1.49.344-2.292C781.652,192.891,776.5,191.975,771.339,191.172Z" transform="translate(107.352 25.528)"/>
    <path id="Path_56" data-name="Path 56" class="cls-2" d="M857.9,297.9c5.271,4.928,10.543,9.855,15.814,14.9,2.865,5.615.229,10.543-2.292,15.012-2.063,3.667-5.386,1.948-6.3-1.261C862.369,317.152,860.306,307.526,857.9,297.9Z" transform="translate(125.186 43.479)"/>
    <path id="Path_57" data-name="Path 57" class="cls-2" d="M740.373,188.8c2.865.229,5.844.458,8.709.917a2.76,2.76,0,0,1,1.719,2.406,3.048,3.048,0,0,1-2.177,2.063c-3.667.573-6.761-.458-8.824-3.552C740.029,190.061,740.144,189.373,740.373,188.8Z" transform="translate(107.95 27.557)"/>
  </g>
</svg>
